<?xml version="1.0" encoding="UTF-8" standalone="no"?>
<svg
   xmlns:dc="http://purl.org/dc/elements/1.1/"
   xmlns:cc="http://creativecommons.org/ns#"
   xmlns:rdf="http://www.w3.org/1999/02/22-rdf-syntax-ns#"
   xmlns:svg="http://www.w3.org/2000/svg"
   xmlns="http://www.w3.org/2000/svg"
   xmlns:sodipodi="http://sodipodi.sourceforge.net/DTD/sodipodi-0.dtd"
   xmlns:inkscape="http://www.inkscape.org/namespaces/inkscape"
   viewBox="0 0 467.03266 77.916474"
   height="77.916473"
   width="467.03268"
   xml:space="preserve"
   version="1.1"
   id="svg2"
   inkscape:version="0.48.4 r9939"
   sodipodi:docname="Logo INCRA.svg"><sodipodi:namedview
     pagecolor="#ffffff"
     bordercolor="#666666"
     borderopacity="1"
     objecttolerance="10"
     gridtolerance="10"
     guidetolerance="10"
     inkscape:pageopacity="0"
     inkscape:pageshadow="2"
     inkscape:window-width="760"
     inkscape:window-height="555"
     id="namedview27193"
     showgrid="false"
     fit-margin-top="0"
     fit-margin-left="0"
     fit-margin-right="0"
     fit-margin-bottom="0"
     inkscape:zoom="0.42272073"
     inkscape:cx="233.51643"
     inkscape:cy="38.957734"
     inkscape:window-x="0"
     inkscape:window-y="0"
     inkscape:window-maximized="0"
     inkscape:current-layer="svg2" /><metadata
     id="metadata8"><rdf:RDF><cc:Work
         rdf:about=""><dc:format>image/svg+xml</dc:format><dc:type
           rdf:resource="http://purl.org/dc/dcmitype/StillImage" /></cc:Work></rdf:RDF></metadata><defs
     id="defs6"><linearGradient
       id="linearGradient24"
       spreadMethod="pad"
       gradientTransform="matrix(0,62.076172,62.076172,0,489.74823,266.73038)"
       gradientUnits="userSpaceOnUse"
       y2="0"
       x2="1"
       y1="0"
       x1="0"><stop
         id="stop26"
         offset="0"
         style="stop-opacity:1;stop-color:#578434" /><stop
         id="stop28"
         offset="0.5"
         style="stop-opacity:1;stop-color:#82b829" /><stop
         id="stop30"
         offset="1"
         style="stop-opacity:1;stop-color:#578434" /></linearGradient><radialGradient
       id="radialGradient46"
       spreadMethod="pad"
       gradientTransform="matrix(49.571613,0,0,-49.571613,297.59052,306.2915)"
       gradientUnits="userSpaceOnUse"
       r="1"
       cy="0"
       cx="0"
       fy="0"
       fx="0"><stop
         id="stop48"
         offset="0"
         style="stop-opacity:1;stop-color:#82b829" /><stop
         id="stop50"
         offset="1"
         style="stop-opacity:1;stop-color:#578434" /></radialGradient></defs><g
     transform="matrix(1.25,0,0,-1.25,-292.66484,411.00875)"
     id="g10"><g
       id="g12"><g
         id="g14"><g
           id="g20"><g
             id="g22"><path
               id="path32"
               style="fill:url(#linearGradient24);stroke:none"
               d="m 451.95,296.964 c 0,-17.174 10.661,-30.234 31.36,-30.234 l 0,0 c 7.195,0 12.881,1.432 15.28,2.594 l 0,0 -1.955,10.734 c -2.754,-1.162 -7.195,-1.968 -11.371,-1.968 l 0,0 c -11.994,0 -19.1,7.603 -19.1,19.59 l 0,0 c 0,13.416 8.351,19.946 19.011,19.946 l 0,0 c 4.886,0 8.706,-1.074 11.371,-2.236 l 0,0 2.842,10.823 c -2.397,1.162 -7.728,2.594 -14.746,2.594 l 0,0 c -18.122,0 -32.692,-11.36 -32.692,-31.843 m 53.83,30.054 0,-59.393 13.415,0 0,23.703 3.998,0 c 5.597,-0.089 8.172,-2.056 9.86,-9.66 l 0,0 c 1.688,-7.424 3.198,-12.254 4.087,-14.043 l 0,0 13.858,0 c -1.155,2.326 -2.931,10.197 -4.797,17.084 l 0,0 c -1.51,5.545 -3.82,9.481 -7.995,11.181 l 0,0 0,0.268 c 5.153,1.879 10.572,7.156 10.572,14.76 l 0,0 c 0,5.544 -1.956,9.749 -5.597,12.611 l 0,0 c -4.265,3.489 -10.484,4.831 -19.367,4.831 l 0,0 c -7.284,0 -13.681,-0.538 -18.034,-1.342 m 13.415,-9.303 c 0.977,0.268 2.842,0.448 6.13,0.448 l 0,0 c 6.218,0 9.95,-2.862 9.95,-8.319 l 0,0 c 0,-5.278 -3.999,-8.677 -10.751,-8.677 l 0,0 -5.329,0 0,16.548 z m 52.229,10.197 -18.301,-60.287 14.037,0 4.175,15.474 17.234,0 4.619,-15.474 14.57,0 -18.655,60.287 -17.679,0 z m 5.507,-21.825 c 0.89,3.489 1.866,8.051 2.665,11.628 l 0,0 0.268,0 c 0.888,-3.488 1.954,-8.05 2.931,-11.628 l 0,0 3.731,-12.791 -13.237,0 3.642,12.791 z m -144.609,21.825 0,-17.531 c 0,-9.124 0.267,-17.264 1.067,-25.225 l 0,0 -0.178,0 c -2.754,6.798 -6.219,14.312 -9.773,20.663 l 0,0 -12.437,22.093 -15.812,0 0,-60.287 12.436,0 0,18.158 c 0,9.839 -0.177,18.336 -0.621,26.386 l 0,0 0.355,0 c 2.843,-7.065 6.841,-14.759 10.394,-21.288 l 0,0 12.792,-23.256 14.215,0 0,60.287 -12.438,0 z m -60.583,-60.287 13.503,0 0,60.287 -13.503,0 0,-60.287 z"
               inkscape:connector-curvature="0" /></g></g></g></g><g
       id="g34"><g
         id="g36"><g
           id="g42"><g
             id="g44"><path
               id="path52"
               style="fill:url(#radialGradient46);stroke:none"
               d="m 290.876,325.638 -5.069,-2.908 9.748,-3.153 6.675,4.001 -8.757,2.392 c -0.229,0.063 -0.497,0.092 -0.777,0.092 l 0,0 c -0.641,0 -1.35,-0.154 -1.82,-0.424 m 9.869,-7.739 14.051,-4.545 7.13,4.843 -14.351,3.92 -6.83,-4.218 z m -19.896,1.988 -13.436,-7.708 c -0.677,-0.387 -0.623,-0.9 0.118,-1.141 l 0,0 8.951,-2.894 15.449,9.261 -8.505,2.75 c -0.258,0.084 -0.567,0.124 -0.889,0.124 l 0,0 c -0.602,0 -1.248,-0.14 -1.688,-0.392 m -10.055,-40.414 38.272,-12.785 c 1.479,-0.494 3.687,-0.104 4.907,0.867 l 0,0 46.104,36.691 c 0.581,0.356 0.972,0.991 0.972,1.722 l 0,0 c 0,0.938 -0.642,1.719 -1.509,1.949 l 0,0 -0.001,0.004 -33.429,9.134 -55.316,-37.582 z m 11.245,26.873 13.855,-4.481 c 0.741,-0.241 1.876,-0.079 2.521,0.359 l 0,0 13.046,8.864 -14.27,4.616 -15.152,-9.358 z m -22.641,1.237 -24.315,-13.946 c -1.353,-0.776 -1.25,-1.816 0.229,-2.309 l 0,0 28.861,-9.642 c 1.479,-0.495 3.744,-0.181 5.033,0.694 l 0,0 21.823,14.826 c 1.289,0.876 1.131,1.985 -0.353,2.465 l 0,0 -26.122,8.45 c -0.516,0.167 -1.135,0.247 -1.777,0.247 l 0,0 c -1.205,0 -2.498,-0.279 -3.379,-0.785"
               inkscape:connector-curvature="0" /></g></g></g></g></g></svg>